<?xml version="1.0" encoding="UTF-8"?>
<svg id="Layer_2" data-name="Layer 2" xmlns="http://www.w3.org/2000/svg" viewBox="0 0 624.07 355.18">
  <defs>
    <style>
      .cls-1 {
        fill: none;
        stroke: #000;
        stroke-miterlimit: 10;
        stroke-width: 3px;
      }
    </style>
  </defs>
  <g>
    <path class="cls-1" d="M96.33,319.21s-20.93.85-22.52-6.63c-.23-1.07-.06-2.31.62-3.75,0,0-19.73.2-15.64-7.41,0,0-20.33-7.63-14.08-12.71,0,0-22.87-11.35-18.39-18.78,0,0-14.08-10.7-8.82-17.76,0,0-27.44-57.26-10.47-72.85,0,0-8.29-5.44,6.87-16.86,0,0-2.22-8.09,6.96-11.28,0,0-4.1-1.44,5.65-8.89,0,0-1.97-9.98,16.19-14.95l16.78-10.15.97-5.07,11.32-4.69s-39.32-36.24-12.03-67.55c0,0,21.92-32.92,34.8-33.46.86-.04,1.68.07,2.45.34,0,0,42.17-13.19,55.47,2.17,0,0,46.87-6.94,58.61,6.67,0,0,18.96,9.49-.77,9.69,0,0-43.97-15.32-51-10.6,0,0,40.87,30.94-3.82,54.51,0,0-46.08,12.35-39.69-25.36,0,0,11.67-31.68,26.71-29.07,0,0-38.82-16.76-65.6,17.17,0,0-36.65,39.94,3.05,70.33,0,0,15.42-7.27,19.33-2.4,0,0,43.32-27.73,64.24-10.27,0,0,18.15-5.97,31.87,20.64,0,0,9.17-7.22,17.61,18.41,0,0,12.29-6.74,14.29,18.34,0,0,6.44-3.48,12.15,22.86,0,0,11.73,5.56,6.67,20.26,0,0,10.24,7.7,1.44,24.23,0,0,9.72-4.35.19,16.77,0,0,14.46,1.83-13.62,34.78,0,0-8.55,27.12-23.38,35.17,0,0-33.35,29.94-36.29,21.01,0,0-.6-6.82-18.74,6.2,0,0-11.91,1.89-6.07-7.4l-17.37,6.34s-15.23,2.84-5.68-7.22l-24.99,5.25s-11.13.25-5.28-6.02Z"/>
    <path class="cls-1" d="M152.68,18.59s.71.5,1.83,1.42c7.73,6.32,35.04,32.27-16.98,46.71,0,0-41.23-8.99,15.16-48.12Z"/>
    <path class="cls-1" d="M172.33,320.32s58.88-43.86,61.81-54.43"/>
    <path class="cls-1" d="M247.76,231.11l-19.48,32-18.54,16.35s-54.99,46.83-60.08,41.41"/>
    <path class="cls-1" d="M126.61,319.99s57.67-22.67,66.3-31.78c0,0,52.63-59.49,52.35-71.02"/>
    <path class="cls-1" d="M246.13,190.11s-21,58.02-51.82,83.84c0,0-37.08,30.94-50.84,32.69l-47.14,12.58"/>
    <path class="cls-1" d="M239.45,169.85s-7.53,50.23-30.34,78.13c0,0-26.51,34.7-43.69,39.63,0,0-39.42,21.54-49.77,20.15,0,0-38.27,4.98-41.21,1.08"/>
    <path class="cls-1" d="M227.3,147s.11,66.42-24.65,94.41c0,0-15.37,37.46-58.71,50.1,0,0-54.07,20.12-85.14,9.91"/>
    <path class="cls-1" d="M213.02,128.66s12.63,77.39-19.35,109.49c0,0-53.63,61.6-77.95,55.33,0,0-62.97,6.58-71-4.77"/>
    <path class="cls-1" d="M195.41,110.25s18.88,77.33,1.34,99.19c0,0-17.36,54.12-54.71,65.07,0,0-31.09,16.94-53.56,12.82,0,0-53.32.36-62.14-17.39"/>
    <path class="cls-1" d="M163.54,89.61s48.15,46.55,30.12,103.11c0,0-6.94,17.87-17.49,35.61-9.88,16.61-22.94,33.1-36.42,34.67,0,0-78.39,46.17-122.24-10.82"/>
    <path class="cls-1" d="M7.04,179.33s82.93-44.18,169.12,49"/>
    <path class="cls-1" d="M13.9,162.47s115.5-18.59,167.01,55.83"/>
    <path class="cls-1" d="M20.86,151.19s111.88-9.3,164.45,57.85"/>
    <path class="cls-1" d="M26.51,142.3s59.34-7.05,91.3,14.46c0,0,78.02,36.66,71.78,43.25"/>
    <path class="cls-1" d="M42.7,127.35s59.58,7.63,84.42,24.94l31.08,17.25,22.91,13.29,12.55,9.89"/>
    <path class="cls-1" d="M52.1,121.66s39.81,3.88,48.62,11.57l40.47,18.65,55.19,29.81"/>
    <path class="cls-1" d="M59.48,117.2s35.55-.24,56.08,13.01l80.74,42.8"/>
    <path class="cls-1" d="M197.7,167.15c.11-3.82-39.79-24.25-39.79-24.25l-45.29-19.61c-6.33-8.72-40.85-15.85-40.85-15.85,0,0,5.54-8.44,23.68.16,0,0,56.24,17.11,58.79,21.84,0,0,43.13,26.39,43.3,32.05"/>
    <path class="cls-1" d="M99.29,99.88s45.14,12.85,49.25,19.33c0,0,49.46,22.46,47.37,30"/>
    <path class="cls-1" d="M168.82,97.65s-57.16-7.41-58.15,5.65"/>
    <path class="cls-1" d="M175.34,103.75s-49.63-4.05-48.17,4"/>
    <path class="cls-1" d="M179.75,110.27s-27.35.02-33.73,3.72c-1.04.6-1.52,1.3-1.24,2.11"/>
    <path class="cls-1" d="M184.61,118.55s-28.6,1.53-26.85,3.7"/>
    <path class="cls-1" d="M188.04,125.41s-17.7-2.03-16.96,3.16"/>
    <path class="cls-1" d="M191.76,134.45s-11.32-2.47-10.45,1.63"/>
    <path class="cls-1" d="M172.82,233.72s-21.48-21.75-16.66-24.2"/>
    <path class="cls-1" d="M169.07,239.31s-23.88-9-27.14-39.49"/>
    <path class="cls-1" d="M163.75,246.31s-30.47-15.67-33.55-54.85"/>
    <path class="cls-1" d="M160.79,249.71s-43.22-16.12-35.79-58.38c.12-.71.26-1.42.41-2.14"/>
    <path class="cls-1" d="M154.91,253.88s-52.02-30.68-36.41-67.96"/>
    <path class="cls-1" d="M147.88,260.31s-58.8-41.58-35.29-77.2"/>
    <path class="cls-1" d="M134.71,265.68s-56.54-61.17-32.06-87.28"/>
    <path class="cls-1" d="M127.71,268.93s-58.37-67.68-34.19-94.86"/>
    <path class="cls-1" d="M115.7,273.59s-53.12-64.34-34.05-102.34"/>
    <path class="cls-1" d="M108.85,275.74s-53.89-54.08-35.12-105.78"/>
    <path class="cls-1" d="M95.99,278.79s-51.51-69.69-33.84-109.81"/>
    <path class="cls-1" d="M85.35,280.25s-57.59-82.99-34.59-110.32"/>
    <path class="cls-1" d="M73.61,280.6s-52.8-75.78-32.18-109.17"/>
    <path class="cls-1" d="M61.6,279.36S14.47,193.34,28.19,172.09"/>
    <path class="cls-1" d="M45.02,274.31S7.54,187.57,20.51,174.13"/>
    <path class="cls-1" d="M29.02,264.26S1.01,191.12,14.75,176.05"/>
  </g>
  <path class="cls-1" d="M358.02,341.55l103.25-4.57s11.97-4.73,5.78,6.18c0,0-10.76,16.04,13.29,8.5l16.16-16.3s10.76-5.5-.41-8.32l-146.43-7.06-109.33,1.26s-55.35,8.11-.87,18.8l118.56,1.51Z"/>
  <g>
    <path d="M297.74,240.59l-.79,2.44c-3.5.21-5.82.63-6.97,1.26-.74.42-1.36,1.05-1.86,1.89-.59,1.08-2.3,6.82-5.14,17.23-.93,3.43-3.29,12.79-7.09,28.09,2.16.69,4.9.99,8.21.9l-.74,2.16c-.99.03-2.97-.09-5.94-.36-2.13-.18-4.62-.27-7.47-.27-3.93,0-7.53.29-10.81.86l.56-2.39c3.4-.51,5.98-1.17,7.75-1.98.43-.21.77-.47,1.02-.77.46-.54.97-1.63,1.51-3.27.54-1.64,2.39-8.33,5.54-20.09.93-3.4,2.81-10.82,5.66-22.28-2.13-.06-4.75.23-7.84.86l.88-2.48c1.3-.33,2.63-.56,3.99-.7,1.36-.14,4.44-.26,9.23-.38,4.48-.12,7.92-.36,10.3-.72Z"/>
    <path d="M298.3,266.61l-1.58-1.58c3.96-3.69,7.12-6.13,9.47-7.34,2.35-1.21,4.36-1.81,6.04-1.81.65,0,1.16.14,1.53.41s.56.59.56.95c0,.27-.08.75-.23,1.44l-2.09,9.08c3.15-3.4,7.1-6.57,11.85-9.52,2.53-1.53,4.62-2.3,6.25-2.3,1.2,0,2.15.38,2.82,1.13s1.02,1.83,1.02,3.25c0,.93-.14,1.98-.42,3.16-.49,1.95-1.79,6.21-3.88,12.76-1.97,6.13-2.96,10.21-2.96,12.22,0,.62.09,1.08.28,1.39.19.31.45.46.79.46.9,0,2.3-.84,4.22-2.53,1.36-1.2,2.72-2.31,4.08-3.34l1.16,1.62c-2.85,3.05-5.8,5.5-8.86,7.36-1.95,1.2-3.56,1.79-4.82,1.79-1.18,0-2.09-.41-2.74-1.24s-.97-2.17-.97-4.04c0-2.68,1.72-9.33,5.15-19.98,1.05-3.79,1.58-6,1.58-6.63,0-.93-.57-1.4-1.72-1.4-1.24,0-2.83.63-4.78,1.9-2.91,1.87-5.33,4.06-7.28,6.59-1.24,1.63-2.27,4.21-3.11,7.77l-3.76,15.76h-6.91c1.3-4.52,2.43-8.84,3.39-12.96l4.13-17.16c.15-.69.23-1.19.23-1.49,0-.81-.31-1.22-.93-1.22-.5,0-1.21.32-2.13.95-1.92,1.24-3.71,2.76-5.38,4.55Z"/>
    <path d="M401.13,257.32h-2.41c.34-3.16.51-5.55.51-7.17,0-2.31-.64-4.14-1.92-5.48-1.28-1.34-3.02-2.01-5.21-2.01-3.39,0-6.36,1.2-8.89,3.59-2.53,2.39-3.79,5.08-3.79,8.06,0,1.59.35,3.04,1.04,4.33.69,1.29,2.23,3.1,4.6,5.42,4.35,4.15,7.2,7.4,8.56,9.75,1.36,2.35,2.04,4.63,2.04,6.86,0,3.28-1.03,6.44-3.08,9.48-2.06,3.04-5.09,5.54-9.09,7.51-4.01,1.97-8.23,2.96-12.69,2.96s-8.09-1.11-11.11-3.34c-3.02-2.23-4.52-4.57-4.52-7.03,0-1.32.39-2.42,1.18-3.29.79-.87,1.69-1.31,2.71-1.31s1.92.41,2.6,1.22c.43.48.87,1.56,1.3,3.25.49,2.04,1.1,3.52,1.81,4.44.71.92,1.69,1.67,2.95,2.25,1.25.59,2.62.88,4.11.88,4.42,0,8.29-1.45,11.6-4.36s4.96-6.12,4.96-9.64c0-1.2-.21-2.4-.63-3.59s-1.18-2.53-2.3-4.04c-.77-1.02-2.49-2.83-5.15-5.42-2.63-2.53-4.28-4.26-4.96-5.19-.96-1.35-1.67-2.71-2.13-4.08s-.7-2.73-.7-4.08c0-2.74.94-5.49,2.83-8.26,1.89-2.77,4.34-4.97,7.35-6.61s6.44-2.46,10.27-2.46c1.92,0,4.28.29,7.1.86,1.61.3,3,.53,4.17.68-.68,1.95-1.21,3.8-1.58,5.52-.37,1.73-.88,5.16-1.53,10.3Z"/>
    <path d="M418.16,249.07l7.36-2.75-3.33,12.62h9.61l-.74,3.2h-9.61l-4.05,15.11c-1.28,4.54-1.93,7.69-1.93,9.46,0,.81.18,1.4.53,1.76.36.36.84.54,1.46.54.96,0,2.43-.56,4.41-1.67,2.6-1.47,5.07-3.14,7.42-5.01l1.76,2.07c-6.77,4.96-11.3,8-13.59,9.11-2.29,1.11-4.13,1.67-5.52,1.67-1.14,0-2.05-.41-2.71-1.22-.67-.81-1-2.13-1-3.97,0-2.16.59-5.47,1.76-9.92l4.72-17.95h-7.51l.83-3.2h7.52l2.6-9.88Z"/>
    <path d="M437.04,266.47l-2.04-1.53c3.09-3.31,5.91-5.66,8.45-7.06,2.55-1.4,4.72-2.1,6.51-2.1.99,0,1.75.21,2.27.63.53.42.79.99.79,1.71,0,.87-1,4.57-3.01,11.09-3.27,10.67-4.9,17.11-4.9,19.3,0,.42.11.77.32,1.06.22.29.45.43.7.43.99,0,3.53-1.86,7.61-5.59l1.81,1.71c-4.24,3.88-7.33,6.36-9.28,7.44-1.95,1.08-3.54,1.62-4.78,1.62-1.08,0-1.94-.33-2.57-.99-.63-.66-.95-1.58-.95-2.75,0-3.76,2.32-12.94,6.96-27.55.22-.69.32-1.31.32-1.85,0-.6-.28-.9-.83-.9-.62,0-1.32.24-2.11.72-.79.48-2.54,2.01-5.26,4.6ZM455.27,236.62c.96,0,1.75.31,2.37.92.62.62.93,1.41.93,2.37,0,1.32-.47,2.49-1.42,3.5-.94,1.01-2,1.51-3.18,1.51-.93,0-1.7-.32-2.32-.95-.62-.63-.93-1.46-.93-2.48,0-1.35.45-2.5,1.35-3.45.9-.95,1.96-1.42,3.2-1.42Z"/>
    <path d="M471.32,249.07l7.36-2.75-3.33,12.62h9.61l-.74,3.2h-9.61l-4.05,15.11c-1.29,4.54-1.93,7.69-1.93,9.46,0,.81.18,1.4.53,1.76s.84.54,1.46.54c.96,0,2.43-.56,4.41-1.67,2.6-1.47,5.07-3.14,7.42-5.01l1.76,2.07c-6.77,4.96-11.3,8-13.59,9.11s-4.13,1.67-5.52,1.67c-1.14,0-2.05-.41-2.71-1.22-.67-.81-1-2.13-1-3.97,0-2.16.59-5.47,1.76-9.92l4.72-17.95h-7.51l.83-3.2h7.52l2.6-9.88Z"/>
    <path d="M514.18,284.15l.97,2.62c-7.36,5.62-13.58,8.43-18.65,8.43-2.69,0-4.65-.93-5.87-2.8s-1.83-4.22-1.83-7.08c0-4.75,1.3-9.63,3.9-14.66,2.6-5.02,5.75-8.87,9.46-11.54,2.91-2.07,6.18-3.11,9.83-3.11,2.29,0,4.02.42,5.2,1.26,1.17.84,1.76,1.86,1.76,3.07,0,.93-.31,1.69-.93,2.28-.62.59-1.48.88-2.6.88s-2.47-.48-4.17-1.44c-1.76-1.02-3.23-1.53-4.41-1.53-1.52,0-3.02.67-4.52,2s-2.93,3.92-4.29,7.77c-1.36,3.84-2.04,7.7-2.04,11.57,0,2.85.57,5.06,1.72,6.62.83,1.2,2.01,1.8,3.53,1.8,3.62,0,7.93-2.04,12.94-6.13Z"/>
    <path d="M558.24,284.38l1.21,1.67c-2.85,3.07-5.77,5.5-8.77,7.31-2.04,1.23-3.73,1.85-5.06,1.85-1.08,0-1.96-.42-2.62-1.26s-1-2.15-1-3.92c0-1.2.26-2.95.77-5.25.51-2.3,1.96-7.24,4.34-14.81,1.05-3.73,1.58-5.91,1.58-6.54,0-.96-.53-1.44-1.58-1.44-1.3,0-2.93.63-4.89,1.89-2.73,1.74-5.15,3.96-7.26,6.66-1.33,1.73-2.41,4.29-3.21,7.68l-3.66,15.75h-6.91c1.48-5.25,2.63-9.55,3.43-12.88l6.82-28.92c1.24-5.34,2.87-9.46,4.89-12.34,2.02-2.88,4.67-5.19,7.93-6.91,3.26-1.72,6.49-2.58,9.67-2.58,1.33,0,2.38.32,3.15.96.77.64,1.16,1.45,1.16,2.42,0,.82-.38,1.55-1.14,2.17-.76.62-1.79.94-3.09.94-.74,0-1.7-.08-2.88-.24-2.66-.38-4.5-.57-5.53-.57-1.42,0-2.59.56-3.48,1.68-.9,1.12-1.83,3.75-2.79,7.88l-5.17,22.26c3.68-3.75,7.69-6.92,12.03-9.5,2.54-1.53,4.58-2.3,6.13-2.3,1.21,0,2.15.35,2.83,1.04.68.69,1.02,1.65,1.02,2.89,0,1.02-.12,2.04-.37,3.07-.4,1.77-1.35,4.99-2.84,9.65-2.02,6.43-3.2,10.43-3.56,12-.36,1.56-.54,2.96-.54,4.19,0,.48.08.84.25,1.08.17.24.42.36.77.36.74,0,2.13-.86,4.17-2.57,1.14-.93,2.54-2.04,4.17-3.34Z"/>
    <path d="M587.1,282.62l1.53,1.98c-7.58,7.01-14.07,10.51-19.48,10.51-2.2,0-3.87-.72-5.03-2.16-1.16-1.44-1.74-3.76-1.74-6.94,0-6.43,2.01-12.84,6.03-19.21,4.51-7.25,9.91-10.87,16.19-10.87,2.2,0,3.87.53,5.03,1.6,1.16,1.07,1.74,2.53,1.74,4.4s-.7,3.88-2.09,5.77-3.88,3.86-7.47,5.91c-1.79.99-5.63,2.78-11.5,5.37-.28,1.62-.42,3.17-.42,4.64,0,2.14.35,3.62,1.04,4.46.7.84,1.71,1.26,3.04,1.26s2.66-.35,4.17-1.04c2.04-.93,5.03-2.83,8.95-5.68ZM570.86,276.08c4.98-2.16,8.72-4.49,11.23-6.99,1.7-1.74,2.55-3.47,2.55-5.19,0-1.29-.35-2.32-1.04-3.09-.7-.77-1.6-1.15-2.71-1.15s-2.26.42-3.34,1.26c-1.45,1.11-2.68,2.8-3.67,5.05-1.42,3.31-2.43,6.67-3.01,10.1Z"/>
    <path d="M615.44,256.01c2.75,0,4.88.52,6.38,1.56s2.25,2.23,2.25,3.58c0,.81-.32,1.52-.95,2.12-.63.6-1.4.9-2.3.9-.59,0-1.1-.13-1.53-.38-.43-.25-1.05-.89-1.86-1.92-1.52-1.95-3.02-2.93-4.5-2.93-1.27,0-2.39.47-3.36,1.42-.97.95-1.46,2.12-1.46,3.54,0,1.23.31,2.43.93,3.58.62,1.16,2.18,3.03,4.69,5.61,3.43,3.54,5.15,6.91,5.15,10.09s-1.39,5.97-4.17,8.36-6.37,3.58-10.76,3.58c-3.68,0-6.42-.73-8.21-2.19-1.79-1.46-2.69-3.25-2.69-5.39,0-1.05.34-1.92,1.02-2.62.68-.69,1.51-1.04,2.5-1.04.87,0,1.61.28,2.23.83.62.56.93,1.21.93,1.96,0,.3-.02.69-.06,1.17-.02.39-.03.72-.03.99,0,.99.43,1.83,1.29,2.53.83.69,1.97,1.04,3.42,1.04,1.66,0,3.13-.28,4.39-.83s2.25-1.4,2.96-2.52c.71-1.13,1.06-2.24,1.06-3.36s-.33-2.16-1-3.24c-.67-1.08-2.16-2.87-4.48-5.36-3.22-3.48-4.82-6.83-4.82-10.04,0-2.94,1.22-5.52,3.67-7.72,2.44-2.21,5.55-3.31,9.32-3.31Z"/>
  </g>
</svg>