<?xml version="1.0" encoding="UTF-8"?>
<svg xmlns="http://www.w3.org/2000/svg" version="1.1" viewBox="0 0 608.3 235">
  <defs>
    <style>
      .cls-1 {
        fill: #fff;
      }
    </style>
  </defs>
  <!-- Generator: Adobe Illustrator 28.6.0, SVG Export Plug-In . SVG Version: 1.2.0 Build 709)  -->
  <g>
    <g id="a">
      <path class="cls-1" d="M146.6,81.6c2.4-6.6,3.8-13.6,3.8-21C150.3,27.1,123.2,0,89.8,0S29.3,27.1,29.3,60.5s1.3,14.5,3.8,21C14.1,86.2,0,103.2,0,123.6s19.4,43.3,43.3,43.3,9-.7,13.2-2.1c-.1.8.2,1.6.2,1.6l26.1,23.6s-3.8,29.3.6,40.1,12.7,0,12.7,0v-61.8l10.2-8.9h5.6c6.9,4.7,15.3,7.5,24.3,7.5,23.9,0,43.3-19.4,43.3-43.3s-14.1-37.5-33.1-42.1h0ZM52.9,162.5l-20.4-21s-3.2-7.6,5.1-3.2l21.7,20.4s1.2,2.4.5,3.8c-1.3.1-2.1.6-2.6,1.1-1,0-2.4-.4-4.3-1.1h0ZM93.6,141l-3.2-14-4.5,19.1v38.9l-22.9-22.3c-.2,0-.5,0-.7-.1,9-4.4,16.3-11.9,20.4-21.1h-.6v-61.2s7-12.7,15.3,0v60.7h-3.8ZM98.7,146.1v-.9c1.2,2.1,2.7,4.2,4.2,6.1l-6.8,8.9,2.6-14h0ZM107,156l-.3-.7c.2.2.4.4.6.6h-.3c0,.1,0,.1,0,.1ZM146.5,121.1l-33.4,32.7h0c0-.1-4.1,1.4-4.1,1.4-1.6-.2-2.9-1.5-2-6.1l34.4-34.4s8.9-3.8,5.1,6.4h0Z"/>
      <polygon class="cls-1" points="166.9 14.2 293 14.2 293 39.7 247.8 39.7 247.1 166.5 214.6 166.5 215.9 40.3 166.9 40.3 166.9 14.2"/>
      <path class="cls-1" d="M298.7,53.7h28v20.9s8.9-20.3,24.8-24.1h12.7v28.7h-17.2s-17.8,7-19.1,17.8l-.6,72h-28.7V53.7h0Z"/>
      <path class="cls-1" d="M426.1,150.2c-24.2-3.5-21.7-32.7-21.7-32.7h82.2c-3.2-74.5-56.7-66.9-56.7-66.9-59.2-.6-56.7,59.2-56.7,59.2-1.9,25.5,8.3,63.7,56.7,63.1,48.4-.6,56.7-38.2,56.7-38.2h-31.2c-2.5,17.1-29.3,15.6-29.3,15.6h0ZM429.9,74.7c23.6.6,25.5,24.3,25.5,24.3h-51s1.9-24.8,25.5-24.3h0Z"/>
      <path class="cls-1" d="M547.8,150.2c-24.2-3.5-21.7-32.7-21.7-32.7h82.2c-3.2-74.5-56.7-66.9-56.7-66.9-59.2-.6-56.7,59.2-56.7,59.2-1.9,25.5,8.3,63.7,56.7,63.1,48.4-.6,56.7-38.2,56.7-38.2h-31.2c-2.5,17.1-29.3,15.6-29.3,15.6h0ZM551.6,74.7c23.6.6,25.5,24.3,25.5,24.3h-51s1.9-24.8,25.5-24.3h0Z"/>
      <path class="cls-1" d="M256,172.8v47.1h10.2v-23.6s7-8.9,12.1,0v23.6h8.3v-23.6s-6.4-20.4-21.7-7.6v-15.9h-8.9,0Z"/>
      <path class="cls-1" d="M225.5,172.8h-10.8v47.1h9.6v-17.8s22.9,8.9,24.8-14c0,0,8.3-14.6-23.6-15.3h0ZM235,196.4h-12.7v-15.3h12.7c10.8,9.6,0,15.3,0,15.3Z"/>
      <path class="cls-1" d="M310.9,184.9c-9.9,0-17.9,8-17.9,17.9s8,17.9,17.9,17.9,17.9-8,17.9-17.9-8-17.9-17.9-17.9ZM310.9,213.9c-6.1,0-11.1-4.9-11.1-11.1s5-11.1,11.1-11.1,11.1,4.9,11.1,11.1-5,11.1-11.1,11.1Z"/>
      <path class="cls-1" d="M373,184.9c-9.9,0-17.9,8-17.9,17.9s8,17.9,17.9,17.9,17.9-8,17.9-17.9-8-17.9-17.9-17.9ZM373,213.9c-6.1,0-11.1-4.9-11.1-11.1s5-11.1,11.1-11.1,11.1,4.9,11.1,11.1-5,11.1-11.1,11.1Z"/>
      <path class="cls-1" d="M337.6,176.7h8.3v8.3h7v6.9h-7.6v22.1h7.6v6.9l-15.3-.9s.6-.6,0-6,0-22.1,0-22.1h-6v-6.9h6.7l-.6-8.3h0Z"/>
      <path class="cls-1" d="M427.1,185.4h-8.3v6.9s-6.2-16.5-21,0c0,0-7,12.2,0,24.3s21,0,21,0c0,0,1.9,13.4-7.6,12.7-9.5-.6-6.4-4.5-6.4-4.5h-10.1s2.1,10,12.1,10,19-1.1,20.3-8.7c1.3-7.6,0-40.8,0-40.8ZM404.5,202.9c6.4-19.6,13.4,0,13.4,0-7,23-13.4,0-13.4,0Z"/>
      <path class="cls-1" d="M436.9,184.9h7v6.9s3.2-6.9,7.6-6.9h3.8v6.9s-12.1,1.6-9.2,6.9v21.2h-9.2v-35h0Z"/>
      <path class="cls-1" d="M490.5,220.9v-17.5c0,0,1.8-17.5-14.1-17.5s-16.6,11.5-16.6,11.5h8.3c-3.8-7,12.1-4.6,12.1-4.6,0,0,1.3,9.7-1.9,6.9s-18.5,4.9-18.5,4.9c0,0-5.7,13.8,7,16.3,12.7,2.6,14-6,14-6v6h9.6,0ZM474.8,213.9c-10.5,3.5-4.8-7.4-4.8-7.4h9.5s5.7,3.8-4.8,7.4h0Z"/>
      <path class="cls-1" d="M517.2,185.9c-10.2-1.6-11.5,7.1-11.5,7.1l1.3-8.7-9.5.6v49.5h8.3v-19.8s8.9,15.1,20.4,0c11.5-15.1,1.3-27.2-8.9-28.8ZM509.5,213.9l-3.8-10.3s1.9-14.9,8.3-9.5c6.4,5.4,7.6,1.6,7.6,12.4s-12.1,7.4-12.1,7.4h0Z"/>
      <path class="cls-1" d="M536.9,176.7v43.3l8.9.9v-24.4s9.5-8.9,12.7,0v23.6l8.9.9v-24.4s-6.9-18.8-21.7-7.6l-.6-12.1h-8.3,0Z"/>
      <path class="cls-1" d="M572,185.9h11.5l6.4,23.5,7-23.5h11.5l-14.7,35.5s1.9,13-10.2,13h-6.4v-7.4l9.5-.6s-1.3-7.5-3.8-11.7-10.8-28.8-10.8-28.8h0Z"/>
    </g>
  </g>
</svg>